<svg version="1.2" baseProfile="tiny-ps" xmlns="http://www.w3.org/2000/svg" viewBox="0 0 1553 327" width="1553" height="327">
	<title>Vector Smart Object-ai</title>
	<style>
		tspan { white-space:pre }
		.shp0 { fill: #2c2e35 } 
	</style>
	<g id="Layer 1">
		<g id="&lt;Group&gt;">
			<path id="&lt;Compound Path&gt;" fill-rule="evenodd" class="shp0" d="M877.92 211.28C855.29 310.49 772.31 321.2 737.69 321.2C703.07 321.2 620 310.49 597.38 211.28C580.63 137.36 610.42 78.14 622.5 54.74C620 53.35 616.55 51.63 611.63 49.46C605.92 46.79 600.14 39.79 602.56 28.48C604.98 17.35 615.43 2.06 628.72 2.06C630.45 2.06 632.18 2.32 633.81 2.84L635.54 3.36C688.04 19.33 694.17 26.58 696.77 34.27C698.32 38.93 697.54 42.56 694.17 57.67C687.09 89.27 668.35 173.28 696.93 211.62C706.09 223.8 719.39 230.45 737.69 231.82C755.91 230.45 769.29 223.8 778.45 211.62C807.03 173.28 788.29 89.27 781.21 57.67C777.85 42.56 777.06 38.93 778.62 34.27C781.13 26.58 787.26 19.33 839.75 3.36L841.57 2.84C843.21 2.32 844.93 2.06 846.66 2.06C859.96 2.06 870.41 17.35 872.74 28.39C875.24 39.79 869.46 46.79 863.76 49.46C858.83 51.63 855.29 53.35 852.79 54.74C864.97 78.14 894.75 137.36 877.92 211.28ZM627.86 135.46C627.86 140.81 632.09 145.05 637.36 145.05C642.63 145.05 646.94 140.81 646.94 135.46C646.94 130.2 642.63 125.97 637.36 125.97C632.09 125.97 627.86 130.2 627.86 135.46ZM643.14 74.77C643.14 80.03 647.46 84.35 652.73 84.35C657.99 84.35 662.23 80.03 662.23 74.77C662.23 69.5 657.99 65.18 652.73 65.18C647.46 65.18 643.14 69.5 643.14 74.77ZM631.74 204.37C631.74 209.64 635.97 213.87 641.24 213.87C646.51 213.87 650.82 209.64 650.82 204.37C650.82 199.1 646.51 194.78 641.24 194.78C635.97 194.78 631.74 199.1 631.74 204.37ZM689.77 256.69C689.77 251.43 685.46 247.19 680.19 247.19C674.92 247.19 670.69 251.43 670.69 256.69C670.69 261.97 674.92 266.29 680.19 266.29C685.46 266.29 689.77 261.97 689.77 256.69ZM737.69 288.9C742.96 288.9 747.19 284.58 747.19 279.32C747.19 274.06 742.96 269.74 737.69 269.74C732.42 269.74 728.1 274.06 728.1 279.32C728.1 284.58 732.42 288.9 737.69 288.9ZM837.94 145.05C843.21 145.05 847.52 140.81 847.52 135.46C847.52 130.2 843.21 125.97 837.94 125.97C832.67 125.97 828.44 130.2 828.44 135.46C828.44 140.81 832.67 145.05 837.94 145.05ZM832.15 74.77C832.15 69.5 827.92 65.18 822.66 65.18C817.39 65.18 813.07 69.5 813.07 74.77C813.07 80.03 817.39 84.35 822.66 84.35C827.92 84.35 832.15 80.03 832.15 74.77ZM843.64 204.37C843.64 199.1 839.32 194.78 834.06 194.78C828.79 194.78 824.55 199.1 824.55 204.37C824.55 209.64 828.79 213.87 834.06 213.87C839.32 213.87 843.64 209.64 843.64 204.37ZM785.61 256.69C785.61 261.97 789.84 266.29 795.11 266.29C800.38 266.29 804.69 261.97 804.69 256.69C804.69 251.43 800.38 247.19 795.11 247.19C789.84 247.19 785.61 251.43 785.61 256.69Z" />
			<path id="&lt;Compound Path&gt;" class="shp0" d="M0.45 254.34L139.87 83.83L7.25 83.83L7.25 5.61L264.24 5.61L264.24 72.65L126.76 242.2L268.62 242.2L268.62 320.41L0.45 320.41L0.45 254.34Z" />
			<path id="&lt;Compound Path&gt;" class="shp0" d="M307.47 5.61L399.77 5.61L399.77 242.2L567.37 242.2L567.37 320.41L307.47 320.41L307.47 5.61Z" />
			<path id="&lt;Compound Path&gt;" class="shp0" d="M1214.93 272.32C1182.54 308.26 1139.3 326.24 1085.22 326.24C1035.99 326.24 995.91 310.62 964.98 279.36C934.05 248.11 918.58 209.32 918.58 163.01C918.58 117.03 934.05 78.49 964.98 47.39C995.91 16.3 1035.99 0.76 1085.22 0.76C1134.77 0.76 1174.77 15.98 1205.21 46.42L1144.49 109.09C1128.29 92.57 1109.83 84.31 1089.1 84.31C1068.38 84.31 1050.81 91.76 1036.39 106.66C1021.98 121.56 1014.78 140.34 1014.78 163.01C1014.78 186.33 1021.74 205.43 1035.67 220.34C1049.59 235.23 1067.4 242.68 1089.1 242.68C1116.31 242.68 1138.65 231.03 1156.14 207.7L1214.93 272.32Z" />
			<path id="&lt;Compound Path&gt;" class="shp0" d="M1247.95 5.61L1340.25 5.61L1340.25 153.3L1430.13 5.61L1536.52 5.61L1439.36 142.61L1552.55 320.41L1444.71 320.41L1384.95 214.99L1340.25 273.77L1340.25 320.41L1247.95 320.41L1247.95 5.61Z" />
		</g>
	</g>
</svg>